<svg width="40" height="39" viewBox="0 0 40 39" fill="none" xmlns="http://www.w3.org/2000/svg">
<rect x="0.5" y="0.000488281" width="39" height="39" rx="19.5" fill="#00ADEE"/>
<path d="M12.591 20.371H24.7771L19.4532 25.6929C19.0277 26.1182 19.0277 26.8162 19.4532 27.2415C19.8786 27.6668 20.5659 27.6668 20.9914 27.2415L28.1809 20.0548C28.6064 19.6295 28.6064 18.9424 28.1809 18.5171L21.0023 11.3195C20.7985 11.1153 20.5218 11.0005 20.2332 11.0005C19.9446 11.0005 19.6679 11.1153 19.4641 11.3195C19.0386 11.7448 19.0386 12.4318 19.4641 12.8571L24.7771 18.1899H12.591C11.9909 18.1899 11.5 18.6807 11.5 19.2805C11.5 19.8803 11.9909 20.371 12.591 20.371Z" fill="white"/>
</svg>
