<svg width="40" height="39" viewBox="0 0 40 39" fill="none" xmlns="http://www.w3.org/2000/svg">
<g opacity="0.3">
<rect x="0.5" y="0.000488281" width="39" height="39" rx="19.5" fill="#00ADEE"/>
<path d="M27.4092 18.4149H15.223L20.547 13.0909C20.9724 12.6655 20.9724 11.9672 20.547 11.5418C20.3431 11.3375 20.0664 11.2227 19.7778 11.2227C19.4892 11.2227 19.2125 11.3375 19.0087 11.5418L11.8191 18.7313C11.3936 19.1568 11.3936 19.8441 11.8191 20.2696L19.0087 27.4592C19.4342 27.8846 20.1215 27.8846 20.547 27.4592C20.9724 27.0337 20.9724 26.3464 20.547 25.9209L15.223 20.5969H27.4092C28.0093 20.5969 28.5002 20.106 28.5002 19.5059C28.5002 18.9059 28.0093 18.4149 27.4092 18.4149Z" fill="white"/>
</g>
</svg>
