<svg width="57" height="64" viewBox="0 0 57 64" fill="none" xmlns="http://www.w3.org/2000/svg">
<path d="M50.2712 22.0982H6.85379C6.17519 22.0982 5.625 21.548 5.625 20.8694V17.183C5.625 14.4684 7.82557 12.2679 10.5402 12.2679H15.4554V6.94309C15.4554 6.26449 16.0056 5.71429 16.6842 5.71429H20.7801C21.4587 5.71429 22.0089 6.26449 22.0089 6.94309V12.2679H35.1161V6.94309C35.1161 6.26449 35.6663 5.71429 36.3449 5.71429H40.4409C41.1195 5.71429 41.6696 6.26449 41.6696 6.94309V12.2679H46.5848C49.2994 12.2679 51.5 14.4684 51.5 17.183V20.8694C51.5 21.548 50.9498 22.0982 50.2712 22.0982ZM6.85379 25.375H50.2712C50.9498 25.375 51.5 25.9252 51.5 26.6038V53.2277C51.5 55.9423 49.2994 58.1429 46.5848 58.1429H10.5402C7.82557 58.1429 5.625 55.9423 5.625 53.2277V26.6038C5.625 25.9252 6.17519 25.375 6.85379 25.375ZM40.9832 35.1999L38.0987 32.292C37.6208 31.8102 36.8427 31.807 36.3609 32.285L25.5028 43.0558L20.7945 38.3094C20.3166 37.8276 19.5384 37.8244 19.0566 38.3024L16.1488 41.187C15.667 41.6649 15.6638 42.443 16.1418 42.9248L24.6002 51.4515C25.078 51.9333 25.8561 51.9364 26.3379 51.4584L40.9762 36.9377C41.458 36.4598 41.4612 35.6817 40.9832 35.1999Z" fill="#00ADEE"/>
</svg>
