<svg width="73" height="24" viewBox="0 0 73 24" fill="none" xmlns="http://www.w3.org/2000/svg">
<g clip-path="url(#clip0_157_592)">
<path d="M70.2574 14.6677L72.2549 16.0204C71.6066 16.9904 70.0561 18.6547 67.3753 18.6547C64.0465 18.6547 61.5674 16.0383 61.5674 12.7099C61.5674 9.16799 64.0728 6.76514 67.0951 6.76514C70.1348 6.76514 71.624 9.22128 72.106 10.5473L72.3688 11.2237L64.5371 14.5164C65.1328 15.709 66.0615 16.3141 67.3753 16.3141C68.6895 16.3141 69.6004 15.6556 70.2574 14.6677ZM64.1166 12.5231L69.3465 10.316C69.0573 9.57742 68.199 9.05242 67.1738 9.05242C65.8687 9.05242 64.0553 10.2271 64.1166 12.5231Z" fill="#FF302F"/>
<path d="M57.7915 0.704733H60.3143V18.1119H57.7915V0.70459V0.704733Z" fill="#20B15A"/>
<path d="M53.8146 7.22792H56.2499V17.8003C56.2499 22.1876 53.7007 23.9942 50.6871 23.9942C47.8488 23.9942 46.1407 22.0542 45.5011 20.4791L47.7349 19.5356C48.1378 20.5056 49.1102 21.6538 50.6871 21.6538C52.6231 21.6538 53.8146 20.4345 53.8146 18.1563V17.3021H53.727C53.1487 18.0139 52.045 18.6546 50.6433 18.6546C47.7174 18.6546 45.0366 16.0649 45.0366 12.7278C45.0366 9.37263 47.7174 6.75635 50.6433 6.75635C52.0362 6.75635 53.1487 7.3882 53.727 8.08235H53.8146V7.22806V7.22792ZM53.9897 12.7278C53.9897 10.6275 52.6143 9.09678 50.8623 9.09678C49.0927 9.09678 47.6034 10.6275 47.6034 12.7278C47.6034 14.8012 49.0927 16.3052 50.8623 16.3052C52.6145 16.3142 53.9898 14.8012 53.9898 12.7278H53.9897Z" fill="#3686F7"/>
<path d="M31.1866 12.6836C31.1866 16.1098 28.5586 18.6283 25.3347 18.6283C22.111 18.6283 19.4829 16.101 19.4829 12.6836C19.4829 9.23955 22.111 6.72998 25.3347 6.72998C28.5586 6.72998 31.1866 9.23955 31.1866 12.6836ZM28.6286 12.6836C28.6286 10.5478 27.1042 9.07927 25.3347 9.07927C23.5653 9.07927 22.0409 10.5478 22.0409 12.6836C22.0409 14.8016 23.5653 16.2878 25.3347 16.2878C27.1044 16.2878 28.6286 14.8016 28.6286 12.6836Z" fill="#FF302F"/>
<path d="M43.9678 12.7099C43.9678 16.1361 41.3397 18.6546 38.116 18.6546C34.8922 18.6546 32.2642 16.136 32.2642 12.7099C32.2642 9.26585 34.8922 6.76514 38.116 6.76514C41.3397 6.76514 43.9678 9.25699 43.9678 12.7099ZM41.401 12.7099C41.401 10.5741 39.8768 9.10557 38.1071 9.10557C36.3376 9.10557 34.8133 10.5741 34.8133 12.7099C34.8133 14.8279 36.3376 16.3141 38.1071 16.3141C39.8855 16.3141 41.401 14.819 41.401 12.7099Z" fill="#FFBA40"/>
<path d="M9.86409 16.0471C6.19349 16.0471 3.32024 13.0391 3.32024 9.31025C3.32024 5.58154 6.19349 2.57354 9.86409 2.57354C11.8439 2.57354 13.2893 3.36554 14.358 4.38011L16.1189 2.59139C14.6297 1.14082 12.6411 0.0371094 9.86409 0.0371094C4.83576 0.0372522 0.604492 4.20225 0.604492 9.31025C0.604492 14.4185 4.83576 18.5834 9.86409 18.5834C12.5798 18.5834 14.6297 17.6757 16.2329 15.9848C17.8797 14.3117 18.3878 11.9622 18.3878 10.0578C18.3878 9.46154 18.3178 8.84754 18.2389 8.39368H9.86409V10.8677H15.8298C15.6546 12.4162 15.1728 13.4753 14.4632 14.196C13.6047 15.0771 12.247 16.0471 9.86409 16.0471Z" fill="#3686F7"/>
</g>
<defs>
<clipPath id="clip0_157_592">
<rect width="72" height="24" fill="white" transform="translate(0.5 0.000488281)"/>
</clipPath>
</defs>
</svg>
