<svg width="66" height="65" viewBox="0 0 66 65" fill="none" xmlns="http://www.w3.org/2000/svg">
<path d="M61.1227 34.7323L56.0669 52.455C55.3214 55.057 52.9144 56.875 50.2108 56.875H22.8438C21.7205 56.875 20.8125 55.965 20.8125 54.8438V26.4062C20.8125 25.9695 20.9527 25.543 21.2147 25.1936L32.1672 10.4873C33.3819 8.96594 35.1328 8.125 37.0097 8.125C40.3998 8.125 43.1562 10.8814 43.1562 14.2716V24.375H53.3166C55.8861 24.375 58.2464 25.5511 59.7922 27.6027C61.3441 29.6583 61.8275 32.2563 61.1227 34.7323Z" fill="#00ADEE"/>
<path d="M14.7188 24.375H6.59375C5.47047 24.375 4.5625 25.285 4.5625 26.4062V54.8438C4.5625 55.965 5.47047 56.875 6.59375 56.875H14.7188C15.842 56.875 16.75 55.965 16.75 54.8438V26.4062C16.75 25.285 15.842 24.375 14.7188 24.375ZM10.6562 51.7969C8.97437 51.7969 7.60938 50.4319 7.60938 48.75C7.60938 47.0681 8.97437 45.7031 10.6562 45.7031C12.3381 45.7031 13.7031 47.0681 13.7031 48.75C13.7031 50.4319 12.3381 51.7969 10.6562 51.7969Z" fill="#00ADEE"/>
</svg>
